<svg xmlns="http://www.w3.org/2000/svg" version="1.1" width="32" height="32" viewBox="200 560 480 390">
<g clip-path="url(#clip_0)">
<path transform="matrix(1,0,0,-1,521.1164,672.2336)" d="M0 0C-2.162-3.633-5.626-5.52-8.467-4.804-9.072-4.651-10.134-4.258-11.21-3.085-11.592-2.656-11.974-2.23-12.253-1.711-12.828-5.613-9.905-10.26-12.659-13.76-14.86-16.556-18.047-20.361-21.184-21.874-21.267-20.179-21.891-16.442-21.346-14.814-19.803-10.204-14.568-7.016-14.665-1.757L-16.897-3.651C-17.279-4.027-19.233-5.867-22.079-5.744-25.133-5.612-27.419-3.296-28.321-.913-29.221 1.464-28.882 4.275-27.259 6.346-25.241 8.921-21.598 9.892-18.289 8.664-21.009 9.938-22.021 15.15-21.037 17.64-18.671 23.626-9.371 23.976-7.346 17.523-6.925 16.182-7.183 14.496-7.473 13.33-7.976 11.315-8.963 9.903-9.581 9.145-9.145 9.527-8.554 9.967-7.796 10.345-5.79 11.345-3.452 10.918-2.088 10.155 .594 8.655 2.365 4.039 0 0" fill="#231f20"/>
<path transform="matrix(1,0,0,-1,468.7988,707.5624)" d="M0 0C.286-.968 5.259 .771 6.053 .948 11.349 2.131 19.587 2.414 23.378 6.465 30.072 13.619 23.111 23.635 14.293 19.725 14.665 23.467 14.502 26.625 10.936 28.792 5.557 32.062 .98 28.758-.772 23.297-3.201 15.726 1.977 7.723 0 0" fill="#231f20"/>
<path transform="matrix(1,0,0,-1,475.1104,669.44436)" d="M0 0C2.93 3.903 5.785 6.685 7.925 8.544 10.987 11.204 12.626 12.012 13.207 12.284 16.835 13.982 20.298 14.027 22.409 13.863 20.872 16.02 18.915 19.288 17.558 23.61 15.928 28.802 15.855 33.321 16.035 36.201 14.022 34.342 11.322 32.193 7.874 30.234 3.134 27.543-1.287 26.196-4.54 25.484-3.196 22.191-1.788 17.93-.894 12.842-.022 7.88 .122 3.496 0 0" fill="#231f20"/>
<path transform="matrix(1,0,0,-1,503.8583,586.9266)" d="M0 0C13.391-11.989 27.365-26.371 34.377-43.147 38.856-53.864 41.133-69.569 28.96-76.273 22.591-79.781 21.085-74.877 17.76-70.614-3.553-43.279-38.788-12.714-69.528 3.303-73.262 5.249-79.629 7.232-82.663 9.246-85.986 11.452-86.056 14.173-84.666 17.632-78.67 32.556-59.385 30.742-46.871 27.008-33.252 22.944-20.467 15.181-8.941 6.968-2.01 15.231 8.204 22.048 19.399 19.664 23.247 18.844 27.761 16.378 26.532 11.734 24.844 5.354 18.634 8.198 14.477 8.188 8.138 8.173 3.955 4.633 0 0" fill="#231f20"/>
<path transform="matrix(1,0,0,-1,430.1449,596.2886)" d="M0 0C-.4-1.122-.913-2.021-1.373-2.694-.42-1.704 1.385-.087 4.111 .954 5.689 1.556 7.997 2.2 9.939 1.839 19.285 .103 20.367-12.934 12.414-17.245 9.105-19.038 1.663-18.506-.575-14.925 .554-18.275 1.924-25.588-1.34-28.145-7.524-32.238-17.356-29.564-19.266-22.008-19.704-20.277-19.528-17.386-17.993-15.061L-15.726-11.627C-23.082-12.38-26.645-20.222-32.817-23.154-34.998-24.189-37.431-24.638-39.811-24.808-38.228-20.176-36.344-14.398-32.813-10.855-28.395-6.421-21.417-9.715-16.069-8.254-16.841-7.952-17.5-7.492-18.162-7.03-25.626-1.831-18.92 8.311-11.663 10.063-5.073 11.653 1.342 7.235 .663 2.381 .597 2.019 .51 1.63 .397 1.219 .275 .775 .139 .368 0 0" fill="#231f20"/>
<path transform="matrix(1,0,0,-1,407.974,688.1456)" d="M0 0C-4.689-5.14-1.464-18.662-7.864-22.189-8.663-22.629-10.679-23.361-11.338-22.559-11.634-22.199-12.738-14.816-13.118-13.414-14.094-9.818-15.556-6.015-17.097-2.627-16.932-2.31-16.933-2.347-16.644-2.324-16.171-2.288-15.346-2.333-14.737-2.301-10.472-2.082-6.244-.635-2.895 2.034L-8.719 2.785C-9.561 2.893-10.39 3.116-11.146 3.502-13.547 4.729-15.02 6.43-15.696 8.322-17.436 13.19-13.305 18.513-9.541 20.779-7.054 22.275-5.078 22.224 .566 22.562 4.295 22.785 9.863 23.193 16.804 23.993 15.649 20.883 14.347 16.073 14.967 10.382 15.767 3.041 19.157-.17 17.387-4.71 16.056-8.122 12.205-11.274 8.195-10.846 3.899-10.387 .039-5.887 0 0" fill="#231f20"/>
<path transform="matrix(1,0,0,-1,398.9658,647.1102)" d="M0 0C-3.032-5.3 .011-12.091 6.702-12.167 13.555-12.245 16.024-5.614 15.835 .209 15.655 5.709 14.584 6.948 16.02 12.939 16.387 14.468 17.757 16.081 15.939 16.77 13.879 17.551 8.345 18.35 5.888 18.775 .842 19.649-6.307 21.346-10.426 17.232-17.03 10.635-11.882 2.826-3.362 3.185-5.514 .378-13.387-.108-15.215-2.252-17.009-4.356-17.044-11.227-16.924-14.037-16.875-15.177-15.733-26.965-14.463-26.765-8.155-18.914-9.1-9.13-2.069-1.594-1.808-1.295-1.449-.938-.977-.594-.49-.238-.373-.159 0 0" fill="#231f20"/>
<path transform="matrix(1,0,0,-1,457.1729,668.2244)" d="M0 0C1-.242 2.03-.048 3.068-.284 10.177-1.902 11.449-10.468 5.907-14.839 .183-19.354-7.667-15.43-9.157-8.499-10.344-10.818-10.733-13.737-10.544-16.264-10.484-17.063-9.809-19.879-9.937-20.968-9.966-21.217-10.187-21.399-10.438-21.411-11.191-21.445-12.047-21.027-12.75-20.763-14.718-20.021-21.893-16.591-22.699-15.022-23.265-13.92-19.269-13.073-18.603-12.779-15.835-11.554-13.422-9.42-12.088-6.679L-14.878-7.49C-17.634-8.072-20.089-7.085-22.127-5.204-31.742 3.666-17.854 16.479-10.103 6.395-12.764 15.605-3.648 23.087 4.554 17.096 11.773 11.823 8.36 1.518 0 0" fill="#231f20"/>
<path transform="matrix(1,0,0,-1,468.0978,620.8146)" d="M0 0 .468 .306C6.549 3.144 14.188-1.29 13.84-8.529 13.477-16.086 6.261-17.24 .261-17.611-4.051-17.877-11.217-18.066-13.425-18.047-13.932-18.042-15.049-18.106-15.627-18.135-16.637-11.633-16.574-8.549-17.239-3.986-18.109 1.983-18.524 7.775-12.517 11.267-4.969 15.653 1.843 7.255 0 0" fill="#231f20"/>
<path transform="matrix(1,0,0,-1,447.4598,647.704)" d="M0 0C-3.524-1.051-6.66-2.244-10.066-3.619-14.579-5.587-18.695-8.049-22.757-10.498-23.085-10.354-22.923-10.083-22.939-9.847-23.01-8.807-22.675-7.104-22.685-5.883-22.715-2.306-23.45 1.428-23.829 5.101-24.141 8.13-25.028 10.578-25.534 14.078-25.604 14.559-21.612 15.899-20.743 16.222-14.248 18.631-8.479 22.189-2.936 26.285L-2.691 21.989Z" fill="#231f20"/>
<path transform="matrix(1,0,0,-1,422.2107,717.19436)" d="M0 0C3.515 6.011 8.016 14.784 9.017 19.949 9.108 20.419 9.561 23.199 9.925 23.614 12.614 22.741 16.992 21.692 22.409 22.041 29.031 22.466 33.984 24.774 36.62 26.247 33.38 17.727 33.003 11.979 33.543 7.642 33.854 5.139 33.929 3.505 33.797 1.973 33.487-1.629 26.27-.684 9.494-.226 5.337-.112 1.986-.04 0 0" fill="#231f20"/>
</g>
<text fill="#231f20" xml:space="preserve" transform="matrix(1 0 -0 1 0 1572.18)" font-size="168.1782" font-family="AngiePro"><tspan y="-682.5918" x="216.2881 354.36244 486.04597 587.79379">NUTS</tspan></text>
<text fill="#231f20" xml:space="preserve" transform="matrix(1 0 -0 1 0 1572.18)" font-size="43.0357" font-family="DeuteriumVariable"><tspan y="-620.3594" x="353.7363 381.3222 419.624 464.38114 478.66899 501.2197">FAMILY</tspan></text>
</svg>